<svg width="13" height="13" viewBox="0 0 13 13" fill="none" xmlns="http://www.w3.org/2000/svg">
<path d="M8.97351 9.28906L12.3041 5.72354C12.3662 5.65705 12.4155 5.57812 12.4491 5.49125C12.4827 5.40438 12.5 5.31127 12.5 5.21724C12.5 5.02734 12.4295 4.84521 12.3041 4.71093C12.242 4.64445 12.1683 4.5917 12.0871 4.55572C12.006 4.51974 11.919 4.50122 11.8312 4.50122C11.6538 4.50122 11.4836 4.57665 11.3582 4.71093L8.50057 7.77728L5.64292 4.71093C5.581 4.6441 5.50733 4.59105 5.42615 4.55484C5.34498 4.51864 5.25792 4.5 5.16998 4.5C5.08204 4.5 4.99498 4.51864 4.91381 4.55484C4.83263 4.59105 4.75896 4.6441 4.69704 4.71093C4.6346 4.77723 4.58505 4.8561 4.55123 4.943C4.51741 5.02989 4.5 5.1231 4.5 5.21724C4.5 5.31138 4.51741 5.40458 4.55123 5.49148C4.58505 5.57838 4.6346 5.65725 4.69704 5.72354L8.02762 9.28906C8.08955 9.3559 8.16322 9.40895 8.24439 9.44516C8.32557 9.48136 8.41263 9.5 8.50057 9.5C8.5885 9.5 8.67557 9.48136 8.75674 9.44516C8.83791 9.40895 8.91159 9.3559 8.97351 9.28906Z" fill="#474168"/>
</svg>
