<svg width="14" height="14" viewBox="0 0 14 14" fill="none" xmlns="http://www.w3.org/2000/svg">
<path d="M9.80652 6.19314L6.47593 2.86256C6.41382 2.80045 6.34009 2.75118 6.25894 2.71757C6.1778 2.68396 6.09082 2.66666 6.00299 2.66666C5.8256 2.66666 5.65548 2.73712 5.53004 2.86256C5.46794 2.92466 5.41867 2.9984 5.38506 3.07954C5.35144 3.16069 5.33414 3.24767 5.33414 3.3355C5.33414 3.51289 5.40461 3.68301 5.53004 3.80844L8.39435 6.66609L5.53004 9.52373C5.46761 9.58566 5.41805 9.65933 5.38424 9.7405C5.35042 9.82168 5.33301 9.90874 5.33301 9.99668C5.33301 10.0846 5.35042 10.1717 5.38424 10.2528C5.41805 10.334 5.46761 10.4077 5.53004 10.4696C5.59197 10.5321 5.66564 10.5816 5.74681 10.6154C5.82799 10.6492 5.91505 10.6667 6.00299 10.6667C6.09092 10.6667 6.17799 10.6492 6.25916 10.6154C6.34033 10.5816 6.41401 10.5321 6.47593 10.4696L9.80652 7.13903C9.86895 7.07711 9.91851 7.00343 9.95233 6.92226C9.98615 6.84109 10.0036 6.75402 10.0036 6.66609C10.0036 6.57815 9.98615 6.49109 9.95233 6.40991C9.91851 6.32874 9.86895 6.25507 9.80652 6.19314Z" fill="#474168"/>
</svg>
