<svg width="19" height="20" viewBox="0 0 19 20" fill="none" xmlns="http://www.w3.org/2000/svg">
<path d="M13.5657 8L7.85522 13.7104L5 10.8552" stroke="#474168" stroke-width="1.44264" stroke-linecap="round" stroke-linejoin="round"/>
<path d="M9 17C9.91943 17.0012 10.83 16.8207 11.6795 16.4688C12.5289 16.1169 13.3004 15.6007 13.9497 14.9497C14.6007 14.3004 15.1169 13.5289 15.4688 12.6795C15.8207 11.83 16.0012 10.9194 16 10C16.0012 9.08058 15.8206 8.16998 15.4688 7.32055C15.1169 6.47112 14.6007 5.69959 13.9497 5.0503C13.3004 4.39931 12.5289 3.88305 11.6795 3.5312C10.83 3.17934 9.91943 2.99881 9 3.00001C8.08058 2.99883 7.16998 3.17936 6.32055 3.53122C5.47112 3.88308 4.69959 4.39933 4.0503 5.0503C3.39933 5.69959 2.88308 6.47112 2.53122 7.32055C2.17936 8.16998 1.99883 9.08058 2.00001 10C1.99881 10.9194 2.17934 11.83 2.5312 12.6795C2.88305 13.5289 3.39931 14.3004 4.0503 14.9497C4.69959 15.6007 5.47112 16.1169 6.32055 16.4688C7.16998 16.8206 8.08058 17.0012 9 17Z" stroke="#474168" stroke-width="1.41474" stroke-linejoin="round"/>
</svg>
