<svg width="18" height="18" viewBox="0 0 18 18" fill="none" xmlns="http://www.w3.org/2000/svg">
<path d="M14.6901 16.9661L9 11.276L3.30992 16.9661C3.0081 17.2679 2.59874 17.4375 2.1719 17.4375C1.74506 17.4375 1.3357 17.2679 1.03388 16.9661C0.732062 16.6643 0.5625 16.2549 0.5625 15.8281C0.5625 15.4013 0.732062 14.9919 1.03388 14.6901L6.72397 9L1.03388 3.30992C0.732061 3.00809 0.5625 2.59874 0.5625 2.1719C0.5625 1.74506 0.732061 1.3357 1.03388 1.03388C1.3357 0.732061 1.74506 0.562501 2.1719 0.562501C2.59874 0.562501 3.00809 0.732061 3.30992 1.03388L9 6.72397L14.6901 1.03388C14.9919 0.732061 15.4013 0.5625 15.8281 0.5625C16.2549 0.5625 16.6643 0.732061 16.9661 1.03388C17.2679 1.3357 17.4375 1.74506 17.4375 2.1719C17.4375 2.59874 17.2679 3.00809 16.9661 3.30992L11.276 9L16.9661 14.6901C17.2679 14.9919 17.4375 15.4013 17.4375 15.8281C17.4375 16.2549 17.2679 16.6643 16.9661 16.9661C16.6643 17.2679 16.2549 17.4375 15.8281 17.4375C15.4013 17.4375 14.9919 17.2679 14.6901 16.9661Z" fill="#474168"/>
</svg>
