<svg width="16" height="17" viewBox="0 0 16 17" fill="none" xmlns="http://www.w3.org/2000/svg">
<path d="M3.78906 10.605L1.78906 8.60503M1.78906 8.60503L3.78906 6.60503M1.78906 8.60503H9.1224M6.03442 5.33184V5.29984C6.03442 4.55317 6.03442 4.17984 6.17975 3.8945C6.30775 3.64317 6.51109 3.43984 6.76242 3.31184C7.04775 3.1665 7.42109 3.1665 8.16775 3.1665L11.761 3.16671C12.5077 3.16671 12.881 3.16671 13.1657 3.31204C13.417 3.44004 13.621 3.64338 13.749 3.89471C13.8943 4.17938 13.8943 4.55271 13.8943 5.29804V11.7027C13.8943 12.448 13.8943 12.8207 13.749 13.1054C13.6209 13.3563 13.4167 13.5603 13.1657 13.688C12.881 13.8334 12.5083 13.8334 11.763 13.8334L8.16575 13.8332C7.42042 13.8332 7.04709 13.8332 6.76242 13.6878C6.51155 13.56 6.30758 13.356 6.17975 13.1052C6.03442 12.8198 6.03442 12.4465 6.03442 11.6998V11.6665" stroke="#474168" stroke-width="1.6" stroke-linecap="round" stroke-linejoin="round"/>
</svg>
