<svg width="11" height="12" viewBox="0 0 11 12" fill="none" xmlns="http://www.w3.org/2000/svg">
<path d="M0.666664 5.94486C0.666664 4.7218 1.15252 3.54884 2.01735 2.684C2.88219 1.81917 4.05515 1.33331 5.27821 1.33331C6.50127 1.33331 7.67423 1.81917 8.53907 2.684C9.4039 3.54884 9.88976 4.7218 9.88976 5.94486V8.87895C9.88976 9.36778 9.88976 9.61104 9.81712 9.80645C9.75937 9.9613 9.669 10.1019 9.55214 10.2188C9.43527 10.3356 9.29465 10.426 9.1398 10.4838C8.94439 10.5564 8.70055 10.5564 8.21231 10.5564H5.27821C4.05515 10.5564 2.88219 10.0705 2.01735 9.20571C1.15252 8.34088 0.666664 7.16792 0.666664 5.94486Z" stroke="#474168" stroke-width="1.06667"/>
<path d="M3.54818 5.36847H7.00684M5.27751 7.67424H7.00684" stroke="#474168" stroke-width="1.06667" stroke-linecap="round" stroke-linejoin="round"/>
</svg>
