<svg width="19" height="20" viewBox="0 0 19 20" fill="none" xmlns="http://www.w3.org/2000/svg">
<path d="M9.50261 17.9168C10.5424 17.9182 11.5723 17.714 12.533 17.3161C13.4936 16.9181 14.3662 16.3343 15.1005 15.598C15.8367 14.8637 16.4206 13.9912 16.8185 13.0305C17.2165 12.0698 17.4206 11.04 17.4193 10.0002C17.4206 8.96034 17.2164 7.93051 16.8185 6.96984C16.4206 6.00917 15.8367 5.13661 15.1005 4.40229C14.3662 3.66606 13.4936 3.08219 12.533 2.68425C11.5723 2.28632 10.5424 2.08216 9.50261 2.0835C8.46279 2.08218 7.43295 2.28635 6.47228 2.68428C5.51161 3.08222 4.63905 3.66607 3.90474 4.40229C3.16851 5.13661 2.58466 6.00917 2.18672 6.96984C1.78879 7.93051 1.58462 8.96034 1.58594 10.0002C1.5846 11.04 1.78876 12.0698 2.18669 13.0305C2.58463 13.9912 3.1685 14.8637 3.90474 15.598C4.63905 16.3343 5.51161 16.9181 6.47228 17.3161C7.43295 17.714 8.46279 17.9182 9.50261 17.9168Z" stroke="#474168" stroke-width="1.6" stroke-linejoin="round"/>
<path d="M9.50391 11.8309V10.2476C9.97364 10.2476 10.4328 10.1083 10.8234 9.8473C11.214 9.58633 11.5184 9.21541 11.6981 8.78143C11.8779 8.34746 11.9249 7.86992 11.8333 7.40922C11.7416 6.94852 11.5154 6.52533 11.1833 6.19318C10.8511 5.86103 10.428 5.63483 9.96725 5.54319C9.50654 5.45155 9.02901 5.49859 8.59503 5.67835C8.16106 5.8581 7.79013 6.16251 7.52917 6.55308C7.2682 6.94365 7.12891 7.40283 7.12891 7.87256" stroke="#474168" stroke-width="1.5" stroke-linecap="round" stroke-linejoin="round"/>
<path fill-rule="evenodd" clip-rule="evenodd" d="M9.5013 15.3932C9.76376 15.3932 10.0155 15.289 10.201 15.1034C10.3866 14.9178 10.4909 14.6661 10.4909 14.4036C10.4909 14.1412 10.3866 13.8895 10.201 13.7039C10.0155 13.5183 9.76376 13.4141 9.5013 13.4141C9.23885 13.4141 8.98714 13.5183 8.80156 13.7039C8.61598 13.8895 8.51172 14.1412 8.51172 14.4036C8.51172 14.6661 8.61598 14.9178 8.80156 15.1034C8.98714 15.289 9.23885 15.3932 9.5013 15.3932Z" fill="#474168"/>
</svg>
