<svg width="19" height="20" viewBox="0 0 19 20" fill="none" xmlns="http://www.w3.org/2000/svg">
<path d="M10.4965 2.87483C6.46694 2.764 3.16569 6.00192 3.16569 9.99983H1.74861C1.39236 9.99983 1.21819 10.4273 1.47153 10.6728L3.68028 12.8894C3.83861 13.0478 4.08403 13.0478 4.24236 12.8894L6.45111 10.6728C6.50582 10.6169 6.54278 10.5462 6.55734 10.4694C6.5719 10.3926 6.5634 10.3133 6.53293 10.2413C6.50245 10.1693 6.45135 10.108 6.38607 10.065C6.3208 10.0221 6.24426 9.99937 6.16611 9.99983H4.74903C4.74903 6.91233 7.26653 4.41858 10.3699 4.45817C13.3149 4.49775 15.7928 6.97567 15.8324 9.92067C15.8719 13.0161 13.3782 15.5415 10.2907 15.5415C9.01611 15.5415 7.83653 15.1061 6.90236 14.3698C6.75073 14.2504 6.56048 14.1908 6.3678 14.2025C6.17512 14.2142 5.99346 14.2963 5.85736 14.4332C5.52486 14.7657 5.54861 15.3278 5.92069 15.6128C7.1645 16.5964 8.70496 17.1294 10.2907 17.1248C14.2886 17.1248 17.5265 13.8236 17.4157 9.794C17.3128 6.08108 14.2094 2.97775 10.4965 2.87483ZM10.0928 6.83317C9.76819 6.83317 9.49903 7.10233 9.49903 7.42692V10.3403C9.49903 10.6173 9.64944 10.8786 9.88694 11.0211L12.3569 12.4857C12.6419 12.6519 13.0061 12.5569 13.1724 12.2798C13.3386 11.9948 13.2436 11.6307 12.9665 11.4644L10.6865 10.1107V7.419C10.6865 7.10233 10.4174 6.83317 10.0928 6.83317Z" fill="#474168"/>
</svg>
