<svg width="19" height="20" viewBox="0 0 19 20" fill="none" xmlns="http://www.w3.org/2000/svg">
<path d="M16.4439 7.98501L10.5101 2.38372L10.4982 2.37259C10.2255 2.12303 9.86928 1.98462 9.49963 1.98462C9.12997 1.98462 8.77372 2.12303 8.50102 2.37259L8.4884 2.38372L2.55609 7.98501C2.40565 8.1242 2.28555 8.29293 2.20331 8.48066C2.12107 8.66839 2.07845 8.87107 2.07812 9.07602V15.9375C2.07813 16.3312 2.23451 16.7088 2.51289 16.9872C2.79126 17.2655 3.16882 17.4219 3.5625 17.4219H7.125C7.51868 17.4219 7.89624 17.2655 8.17461 16.9872C8.45299 16.7088 8.60938 16.3312 8.60938 15.9375V13.1719C8.60938 12.8958 8.83323 12.6719 9.10938 12.6719H9.89062C10.1668 12.6719 10.3906 12.8958 10.3906 13.1719V15.9375C10.3906 16.3312 10.547 16.7088 10.8254 16.9872C11.1038 17.2655 11.4813 17.4219 11.875 17.4219H15.4375C15.8312 17.4219 16.2087 17.2655 16.4871 16.9872C16.7655 16.7088 16.9219 16.3312 16.9219 15.9375V9.07602C16.9215 8.87107 16.8789 8.66839 16.7967 8.48066C16.7144 8.29293 16.5943 8.1242 16.4439 7.98501ZM15.1406 15.1407C15.1406 15.4168 14.9168 15.6407 14.6406 15.6407H12.6719C12.3957 15.6407 12.1719 15.4168 12.1719 15.1407V12.375C12.1719 12.1801 12.1335 11.9871 12.0589 11.807C11.9843 11.6269 11.8749 11.4633 11.7371 11.3254C11.5993 11.1876 11.4356 11.0783 11.2555 11.0037C11.0755 10.9291 10.8824 10.8907 10.6875 10.8907H8.3125C7.91882 10.8907 7.54126 11.0471 7.26289 11.3254C6.98451 11.6038 6.82812 11.9814 6.82812 12.375V15.1407C6.82812 15.4168 6.60427 15.6407 6.32812 15.6407H4.35938C4.08323 15.6407 3.85938 15.4168 3.85938 15.1407V9.63558C3.85938 9.36039 3.97278 9.09735 4.17289 8.90844L8.81352 4.52732C9.19887 4.16352 9.80113 4.16352 10.1865 4.52732L14.8271 8.90844C15.0272 9.09735 15.1406 9.36039 15.1406 9.63558V15.1407Z" fill="#474168"/>
</svg>
