<svg width="19" height="20" viewBox="0 0 19 20" fill="none" xmlns="http://www.w3.org/2000/svg">
<path d="M2.37565 7.03127C2.37557 6.34237 2.54672 5.66425 2.87372 5.05791C3.20072 4.45156 3.67332 3.93601 4.24899 3.55762C4.82467 3.17922 5.48537 2.94986 6.17168 2.89015C6.85799 2.83045 7.54838 2.94227 8.18075 3.21557C8.81312 3.48887 9.36764 3.91507 9.79444 4.45584C10.2212 4.9966 10.5069 5.63498 10.6258 6.31355C10.7447 6.99211 10.693 7.68959 10.4755 8.34324C10.2579 8.99689 9.88133 9.58622 9.37952 10.0582C10.3257 10.5174 11.1473 11.1979 11.7745 12.0422C12.4017 12.8864 12.816 13.8695 12.9824 14.908C13.0007 15.0235 12.9961 15.1415 12.9688 15.2553C12.9415 15.3691 12.8921 15.4764 12.8233 15.571C12.7546 15.6657 12.6679 15.7459 12.5681 15.8071C12.4684 15.8682 12.3575 15.9091 12.242 15.9274C12.1264 15.9458 12.0084 15.9411 11.8946 15.9138C11.7809 15.8866 11.6736 15.8371 11.5789 15.7684C11.4843 15.6996 11.4041 15.6129 11.3429 15.5131C11.2818 15.4134 11.2408 15.3026 11.2225 15.187C11.0444 14.0711 10.4743 13.0553 9.61461 12.3219C8.7549 11.5886 7.66191 11.1857 6.5319 11.1857C5.40189 11.1857 4.30889 11.5886 3.44919 12.3219C2.58948 13.0553 2.01939 14.0711 1.84127 15.187C1.82287 15.3026 1.78189 15.4134 1.72067 15.5131C1.65945 15.6128 1.57919 15.6995 1.48446 15.7682C1.38974 15.8369 1.28242 15.8863 1.16862 15.9135C1.05482 15.9407 0.936767 15.9452 0.821212 15.9268C0.705657 15.9084 0.594858 15.8675 0.495141 15.8062C0.395424 15.745 0.308742 15.6647 0.240044 15.57C0.171346 15.4753 0.121978 15.368 0.0947575 15.2542C0.0675372 15.1404 0.0629982 15.0223 0.0813997 14.9068C0.248047 13.8687 0.662533 12.8861 1.28972 12.0422C1.91691 11.1984 2.7383 10.5182 3.68427 10.0594C3.27063 9.671 2.94108 9.20187 2.71599 8.68102C2.4909 8.16017 2.37507 7.59868 2.37565 7.03127ZM13.0631 5.25002C13.7531 5.25051 14.4281 5.45126 15.0061 5.82792C15.5842 6.20458 16.0405 6.74094 16.3197 7.37191C16.5988 8.00287 16.6888 8.7013 16.5787 9.38241C16.4686 10.0635 16.1631 10.698 15.6994 11.2089C16.4222 11.5677 17.0645 12.0699 17.5871 12.6848C18.1097 13.2997 18.5017 14.0145 18.7394 14.7856C18.7865 14.9354 18.7931 15.0949 18.7586 15.2479C18.7241 15.401 18.6497 15.5423 18.543 15.6573C18.4363 15.7724 18.301 15.8572 18.1509 15.903C18.0008 15.9489 17.8413 15.9542 17.6885 15.9185C17.5358 15.883 17.3952 15.8078 17.2807 15.7007C17.1663 15.5935 17.0821 15.4582 17.0365 15.3081C16.8237 14.6196 16.4359 13.9982 15.9109 13.5044C15.386 13.0107 14.7419 12.6617 14.0416 12.4914C13.8472 12.4445 13.6742 12.3334 13.5505 12.1761C13.4269 12.0189 13.3598 11.8246 13.36 11.6245V11.2065C13.3599 11.0407 13.4061 10.8782 13.4934 10.7372C13.5807 10.5962 13.7056 10.4824 13.854 10.4085C14.214 10.2301 14.5031 9.93522 14.6744 9.57175C14.8457 9.20828 14.889 8.79759 14.7974 8.40638C14.7058 8.01517 14.4846 7.66643 14.1698 7.41679C13.8549 7.16716 13.4649 7.0313 13.0631 7.03127C12.8269 7.03127 12.6004 6.93744 12.4334 6.77042C12.2664 6.60339 12.1725 6.37686 12.1725 6.14065C12.1725 5.90444 12.2664 5.67791 12.4334 5.51088C12.6004 5.34386 12.8269 5.25002 13.0631 5.25002ZM6.5319 4.65627C6.21562 4.64912 5.9011 4.70523 5.60681 4.8213C5.31251 4.93738 5.04437 5.11108 4.81813 5.3322C4.59189 5.55333 4.41211 5.81743 4.28934 6.109C4.16657 6.40056 4.10329 6.71371 4.10321 7.03007C4.10313 7.34643 4.16625 7.65962 4.28888 7.95124C4.4115 8.24287 4.59115 8.50706 4.81728 8.7283C5.04341 8.94954 5.31147 9.12337 5.6057 9.23959C5.89994 9.35582 6.21443 9.41208 6.53071 9.40509C7.15125 9.39136 7.74177 9.13526 8.17584 8.69159C8.60991 8.24792 8.85305 7.65195 8.85321 7.03126C8.85336 6.41057 8.61052 5.81448 8.17667 5.37059C7.74282 4.92671 7.15243 4.67031 6.5319 4.65627Z" fill="#474168"/>
</svg>
