<svg width="19" height="20" viewBox="0 0 19 20" fill="none" xmlns="http://www.w3.org/2000/svg">
<path d="M8.22106 17.207C6.57113 17.207 4.98878 16.5516 3.82211 15.3849C2.65543 14.2182 2 12.6359 2 10.986C2 9.33605 2.65543 7.75369 3.82211 6.58702C4.78168 5.62745 6.02245 5.01372 7.35074 4.82607C7.82822 4.75861 8.22106 5.15583 8.22106 5.63805V9.90098C8.22106 10.5957 8.49703 11.2619 8.98826 11.7532L9.02427 11.7892L12.0034 14.7683C12.3441 15.109 12.3476 15.667 11.9629 15.9571C11.5451 16.2722 11.088 16.5338 10.6024 16.735C9.84745 17.0477 9.03818 17.2081 8.22106 17.207ZM11.8591 8.22106C11.3769 8.22106 10.986 7.83014 10.986 7.34793V2.43657C10.986 2.19546 11.1817 1.9984 11.4222 2.0153C12.9127 2.12002 14.3215 2.75869 15.3849 3.82211C16.4483 4.88553 17.087 6.2943 17.1917 7.78482C17.2086 8.02533 17.0116 8.22106 16.7705 8.22106H11.8591ZM12.5095 11.7908C11.9517 11.2431 12.3395 10.2947 13.1213 10.2947H16.0799C16.3207 10.2947 16.5177 10.4901 16.5011 10.7303C16.4218 11.8812 16.0225 12.9872 15.349 13.9231C15.2005 14.1295 14.9045 14.1428 14.7231 13.9647L12.5095 11.7908Z" stroke="#474168" stroke-width="1.38246"/>
</svg>
