<svg width="19" height="20" viewBox="0 0 19 20" fill="none" xmlns="http://www.w3.org/2000/svg">
<path d="M5.9375 11.7812C5.9375 11.4533 6.20333 11.1875 6.53125 11.1875H10.0938C10.4217 11.1875 10.6875 11.4533 10.6875 11.7812C10.6875 12.1092 10.4217 12.375 10.0938 12.375H6.53125C6.20333 12.375 5.9375 12.1092 5.9375 11.7812ZM5.9375 8.8125C5.9375 8.48458 6.20333 8.21875 6.53125 8.21875H12.4688C12.7967 8.21875 13.0625 8.48458 13.0625 8.8125C13.0625 9.14042 12.7967 9.40625 12.4688 9.40625H6.53125C6.20333 9.40625 5.9375 9.14042 5.9375 8.8125ZM5.9375 14.75C5.9375 14.4221 6.20333 14.1562 6.53125 14.1562H8.3125C8.64042 14.1562 8.90625 14.4221 8.90625 14.75C8.90625 15.0779 8.64042 15.3438 8.3125 15.3438H6.53125C6.20333 15.3438 5.9375 15.0779 5.9375 14.75Z" fill="#474168"/>
<path d="M14.8438 3.46875H13.0625V2.875C13.0625 2.56006 12.9374 2.25801 12.7147 2.03531C12.492 1.81261 12.1899 1.6875 11.875 1.6875H7.125C6.81006 1.6875 6.50801 1.81261 6.28531 2.03531C6.06261 2.25801 5.9375 2.56006 5.9375 2.875V3.46875H4.15625C3.84131 3.46875 3.53926 3.59386 3.31656 3.81656C3.09386 4.03926 2.96875 4.34131 2.96875 4.65625V17.125C2.96875 17.4399 3.09386 17.742 3.31656 17.9647C3.53926 18.1874 3.84131 18.3125 4.15625 18.3125H14.8438C15.1587 18.3125 15.4607 18.1874 15.6834 17.9647C15.9061 17.742 16.0312 17.4399 16.0312 17.125V4.65625C16.0312 4.34131 15.9061 4.03926 15.6834 3.81656C15.4607 3.59386 15.1587 3.46875 14.8438 3.46875ZM7.125 3.375C7.125 3.09886 7.34886 2.875 7.625 2.875H11.375C11.6511 2.875 11.875 3.09886 11.875 3.375V4.75C11.875 5.02614 11.6511 5.25 11.375 5.25H7.625C7.34886 5.25 7.125 5.02614 7.125 4.75V3.375ZM14.8438 16.625C14.8438 16.9011 14.6199 17.125 14.3438 17.125H4.65625C4.38011 17.125 4.15625 16.9011 4.15625 16.625V5.15625C4.15625 4.88011 4.38011 4.65625 4.65625 4.65625H5.4375C5.71364 4.65625 5.9375 4.88011 5.9375 5.15625V5.4375C5.9375 5.98978 6.38522 6.4375 6.9375 6.4375H12.0625C12.6148 6.4375 13.0625 5.98978 13.0625 5.4375V5.15625C13.0625 4.88011 13.2864 4.65625 13.5625 4.65625H14.3438C14.6199 4.65625 14.8438 4.88011 14.8438 5.15625V16.625Z" fill="#474168"/>
</svg>
