<svg width="19" height="19" viewBox="0 0 19 19" fill="none" xmlns="http://www.w3.org/2000/svg">
<path fill-rule="evenodd" clip-rule="evenodd" d="M7.60039 3.7999C6.59257 3.7999 5.62602 4.20025 4.91338 4.91289C4.20075 5.62553 3.80039 6.59208 3.80039 7.5999C3.80039 8.60772 4.20075 9.57427 4.91338 10.2869C5.62602 10.9995 6.59257 11.3999 7.60039 11.3999C8.60821 11.3999 9.57476 10.9995 10.2874 10.2869C11 9.57427 11.4004 8.60772 11.4004 7.5999C11.4004 6.59208 11 5.62553 10.2874 4.91289C9.57476 4.20025 8.60821 3.7999 7.60039 3.7999ZM1.90039 7.5999C1.90028 6.70282 2.1119 5.81837 2.51805 5.0185C2.92421 4.21863 3.51342 3.52592 4.23777 2.9967C4.96212 2.46748 5.80115 2.1167 6.68663 1.97289C7.57211 1.82908 8.47903 1.8963 9.33363 2.16908C10.1882 2.44186 10.9664 2.9125 11.6048 3.54273C12.2432 4.17295 12.7239 4.94496 13.0077 5.79597C13.2914 6.64698 13.3704 7.55296 13.238 8.44022C13.1056 9.32748 12.7657 10.171 12.2459 10.9021L16.822 15.4782C16.9951 15.6574 17.0908 15.8974 17.0887 16.1465C17.0865 16.3956 16.9866 16.6338 16.8105 16.81C16.6343 16.9861 16.3961 17.086 16.147 17.0882C15.8979 17.0904 15.6579 16.9946 15.4787 16.8215L10.9035 12.2463C10.0508 12.8527 9.04757 13.2126 8.00383 13.2867C6.96009 13.3608 5.91611 13.1461 4.98628 12.6662C4.05644 12.1863 3.27664 11.4598 2.73233 10.5661C2.18801 9.67249 1.90019 8.64626 1.90039 7.5999Z" fill="#474168"/>
</svg>
