<svg width="19" height="20" viewBox="0 0 19 20" fill="none" xmlns="http://www.w3.org/2000/svg">
<path d="M9.67246 2.0835H9.32413C8.9042 2.0835 8.50147 2.25031 8.20454 2.54724C7.90761 2.84418 7.74079 3.2469 7.74079 3.66683V3.80933C7.74051 4.08699 7.66721 4.35969 7.52826 4.60008C7.38931 4.84046 7.18958 5.04008 6.94913 5.17891L6.60871 5.37683C6.36801 5.5158 6.09498 5.58896 5.81704 5.58896C5.53911 5.58896 5.26607 5.5158 5.02538 5.37683L4.90663 5.3135C4.5433 5.10391 4.11166 5.04706 3.70646 5.15541C3.30126 5.26376 2.9556 5.52846 2.74538 5.89141L2.57121 6.19225C2.36163 6.55557 2.30477 6.98721 2.41312 7.39241C2.52147 7.79761 2.78617 8.14327 3.14913 8.3535L3.26788 8.43266C3.50718 8.57082 3.70616 8.76919 3.84504 9.00807C3.98392 9.24695 4.05787 9.51802 4.05954 9.79433V10.1981C4.06065 10.4771 3.98802 10.7514 3.84899 10.9933C3.70997 11.2352 3.5095 11.4361 3.26788 11.5756L3.14913 11.6468C2.78617 11.8571 2.52147 12.2027 2.41312 12.6079C2.30477 13.0131 2.36163 13.4448 2.57121 13.8081L2.74538 14.1089C2.9556 14.4719 3.30126 14.7366 3.70646 14.8449C4.11166 14.9533 4.5433 14.8964 4.90663 14.6868L5.02538 14.6235C5.26607 14.4845 5.53911 14.4114 5.81704 14.4114C6.09498 14.4114 6.36801 14.4845 6.60871 14.6235L6.94913 14.8214C7.18958 14.9602 7.38931 15.1599 7.52826 15.4002C7.66721 15.6406 7.74051 15.9133 7.74079 16.191V16.3335C7.74079 16.7534 7.90761 17.1561 8.20454 17.4531C8.50147 17.75 8.9042 17.9168 9.32413 17.9168H9.67246C10.0924 17.9168 10.4951 17.75 10.792 17.4531C11.089 17.1561 11.2558 16.7534 11.2558 16.3335V16.191C11.2561 15.9133 11.3294 15.6406 11.4683 15.4002C11.6073 15.1599 11.807 14.9602 12.0475 14.8214L12.3879 14.6235C12.6286 14.4845 12.9016 14.4114 13.1795 14.4114C13.4575 14.4114 13.7305 14.4845 13.9712 14.6235L14.09 14.6868C14.4533 14.8964 14.8849 14.9533 15.2901 14.8449C15.6953 14.7366 16.041 14.4719 16.2512 14.1089L16.4254 13.8002C16.635 13.4368 16.6918 13.0052 16.5835 12.6C16.4751 12.1948 16.2104 11.8491 15.8475 11.6389L15.7287 11.5756C15.4871 11.4361 15.2866 11.2352 15.1476 10.9933C15.0086 10.7514 14.9359 10.4771 14.937 10.1981V9.80225C14.9359 9.52325 15.0086 9.24891 15.1476 9.00701C15.2866 8.76511 15.4871 8.56424 15.7287 8.42475L15.8475 8.3535C16.2104 8.14327 16.4751 7.79761 16.5835 7.39241C16.6918 6.98721 16.635 6.55557 16.4254 6.19225L16.2512 5.89141C16.041 5.52846 15.6953 5.26376 15.2901 5.15541C14.8849 5.04706 14.4533 5.10391 14.09 5.3135L13.9712 5.37683C13.7305 5.5158 13.4575 5.58896 13.1795 5.58896C12.9016 5.58896 12.6286 5.5158 12.3879 5.37683L12.0475 5.17891C11.807 5.04008 11.6073 4.84046 11.4683 4.60008C11.3294 4.35969 11.2561 4.08699 11.2558 3.80933V3.66683C11.2558 3.2469 11.089 2.84418 10.792 2.54724C10.4951 2.25031 10.0924 2.0835 9.67246 2.0835Z" stroke="#474168" stroke-width="1.6" stroke-linecap="round" stroke-linejoin="round"/>
<path d="M9.5 12.375C10.8117 12.375 11.875 11.3117 11.875 10C11.875 8.68832 10.8117 7.625 9.5 7.625C8.18832 7.625 7.125 8.68832 7.125 10C7.125 11.3117 8.18832 12.375 9.5 12.375Z" stroke="#474168" stroke-width="1.5" stroke-linecap="round" stroke-linejoin="round"/>
</svg>
