<svg width="19" height="20" viewBox="0 0 19 20" fill="none" xmlns="http://www.w3.org/2000/svg">
<path d="M11.0846 9.99984H15.8346M11.0846 13.1665H15.8346M11.0846 16.3332H15.8346M3.16797 4.45817C3.16797 4.24821 3.25138 4.04684 3.39984 3.89838C3.54831 3.74991 3.74967 3.6665 3.95964 3.6665H15.043C15.2529 3.6665 15.4543 3.74991 15.6028 3.89838C15.7512 4.04684 15.8346 4.24821 15.8346 4.45817V6.0415C15.8346 6.25147 15.7512 6.45283 15.6028 6.6013C15.4543 6.74976 15.2529 6.83317 15.043 6.83317H3.95964C3.74967 6.83317 3.54831 6.74976 3.39984 6.6013C3.25138 6.45283 3.16797 6.25147 3.16797 6.0415V4.45817ZM3.16797 10.7915C3.16797 10.5815 3.25138 10.3802 3.39984 10.2317C3.54831 10.0832 3.74967 9.99984 3.95964 9.99984H7.1263C7.33627 9.99984 7.53763 10.0832 7.68609 10.2317C7.83456 10.3802 7.91797 10.5815 7.91797 10.7915V15.5415C7.91797 15.7515 7.83456 15.9528 7.68609 16.1013C7.53763 16.2498 7.33627 16.3332 7.1263 16.3332H3.95964C3.74967 16.3332 3.54831 16.2498 3.39984 16.1013C3.25138 15.9528 3.16797 15.7515 3.16797 15.5415V10.7915Z" stroke="#474168" stroke-width="1.58333" stroke-linecap="round" stroke-linejoin="round"/>
</svg>
