<svg width="164" height="153" viewBox="0 0 164 153" fill="none" xmlns="http://www.w3.org/2000/svg">
<g opacity="0.6">
<g filter="url(#filter0_i_5055_6228)">
<circle cx="66" cy="87.5" r="65.5" fill="#D15541"/>
</g>
<g filter="url(#filter1_i_5055_6228)">
<circle cx="102.5" cy="50" r="50" fill="#474168"/>
</g>
<g filter="url(#filter2_i_5055_6228)">
<circle cx="129" cy="95.5" r="34.5" fill="#F6F5E8"/>
</g>
</g>
<path d="M91.26 52.736C91.26 52.4267 91.1907 52.1547 91.052 51.92C90.9133 51.6747 90.6733 51.472 90.332 51.312C89.9907 51.152 89.532 51.0293 88.956 50.944C88.38 50.8587 87.6547 50.816 86.78 50.816C86.8973 49.824 86.9933 48.816 87.068 47.792C87.1427 46.768 87.2013 45.808 87.244 44.912H93.244V46.912H89.244C89.2227 47.296 89.196 47.6693 89.164 48.032C89.1427 48.384 89.116 48.6933 89.084 48.96C90.6413 49.0667 91.788 49.4347 92.524 50.064C93.2707 50.6827 93.644 51.5467 93.644 52.656C93.644 53.168 93.5533 53.6427 93.372 54.08C93.1907 54.5173 92.9187 54.896 92.556 55.216C92.1933 55.536 91.7347 55.7867 91.18 55.968C90.636 56.1493 89.996 56.24 89.26 56.24C88.972 56.24 88.668 56.2187 88.348 56.176C88.0387 56.144 87.7347 56.096 87.436 56.032C87.148 55.9787 86.8867 55.92 86.652 55.856C86.4173 55.792 86.236 55.728 86.108 55.664L86.54 53.696C86.8067 53.8133 87.1587 53.9307 87.596 54.048C88.0333 54.1547 88.556 54.208 89.164 54.208C89.9 54.208 90.4333 54.064 90.764 53.776C91.0947 53.4773 91.26 53.1307 91.26 52.736ZM103.138 50.432C103.138 52.2987 102.78 53.7333 102.066 54.736C101.362 55.728 100.386 56.224 99.1378 56.224C97.8898 56.224 96.9084 55.728 96.1938 54.736C95.4898 53.7333 95.1378 52.2987 95.1378 50.432C95.1378 49.504 95.2284 48.6827 95.4098 47.968C95.6018 47.2533 95.8738 46.6507 96.2258 46.16C96.5778 45.6693 96.9991 45.296 97.4898 45.04C97.9804 44.784 98.5298 44.656 99.1378 44.656C100.386 44.656 101.362 45.1573 102.066 46.16C102.78 47.152 103.138 48.576 103.138 50.432ZM100.706 50.432C100.706 49.8773 100.679 49.376 100.626 48.928C100.572 48.4693 100.487 48.0747 100.37 47.744C100.252 47.4133 100.092 47.1573 99.8898 46.976C99.6871 46.7947 99.4364 46.704 99.1378 46.704C98.8391 46.704 98.5884 46.7947 98.3858 46.976C98.1938 47.1573 98.0338 47.4133 97.9058 47.744C97.7884 48.0747 97.7031 48.4693 97.6498 48.928C97.5964 49.376 97.5698 49.8773 97.5698 50.432C97.5698 50.9867 97.5964 51.4933 97.6498 51.952C97.7031 52.4107 97.7884 52.8053 97.9058 53.136C98.0338 53.4667 98.1938 53.7227 98.3858 53.904C98.5884 54.0853 98.8391 54.176 99.1378 54.176C99.4364 54.176 99.6871 54.0853 99.8898 53.904C100.092 53.7227 100.252 53.4667 100.37 53.136C100.487 52.8053 100.572 52.4107 100.626 51.952C100.679 51.4933 100.706 50.9867 100.706 50.432ZM109.912 47.76C109.912 48.7627 109.656 49.5307 109.144 50.064C108.632 50.5973 107.944 50.864 107.08 50.864C106.216 50.864 105.528 50.5973 105.016 50.064C104.504 49.5307 104.248 48.7627 104.248 47.76C104.248 46.7573 104.504 45.9893 105.016 45.456C105.528 44.9227 106.216 44.656 107.08 44.656C107.944 44.656 108.632 44.9227 109.144 45.456C109.656 45.9893 109.912 46.7573 109.912 47.76ZM108.104 47.76C108.104 47.216 108.008 46.8213 107.816 46.576C107.624 46.3307 107.378 46.208 107.08 46.208C106.77 46.208 106.52 46.3307 106.328 46.576C106.146 46.8213 106.056 47.216 106.056 47.76C106.056 48.304 106.146 48.704 106.328 48.96C106.52 49.2053 106.77 49.328 107.08 49.328C107.378 49.328 107.624 49.2053 107.816 48.96C108.008 48.704 108.104 48.304 108.104 47.76ZM113.032 44.912H115.256L109 56H106.776L113.032 44.912ZM117.816 53.152C117.816 54.1547 117.56 54.9227 117.048 55.456C116.536 55.9893 115.848 56.256 114.984 56.256C114.12 56.256 113.432 55.9893 112.92 55.456C112.408 54.9227 112.152 54.1547 112.152 53.152C112.152 52.1493 112.408 51.3813 112.92 50.848C113.432 50.3147 114.12 50.048 114.984 50.048C115.848 50.048 116.536 50.3147 117.048 50.848C117.56 51.3813 117.816 52.1493 117.816 53.152ZM116.008 53.152C116.008 52.608 115.912 52.2133 115.72 51.968C115.528 51.7227 115.282 51.6 114.984 51.6C114.674 51.6 114.424 51.7227 114.232 51.968C114.05 52.2133 113.96 52.608 113.96 53.152C113.96 53.696 114.05 54.096 114.232 54.352C114.424 54.5973 114.674 54.72 114.984 54.72C115.282 54.72 115.528 54.5973 115.72 54.352C115.912 54.096 116.008 53.696 116.008 53.152Z" fill="#F6F5E8"/>
<path d="M28.34 108C28.42 107.027 28.5867 106.013 28.84 104.96C29.0933 103.907 29.4 102.873 29.76 101.86C30.1333 100.847 30.5467 99.8933 31 99C31.4533 98.0933 31.9133 97.3133 32.38 96.66H26.36V94.12H36.06V96.28C35.6333 96.7467 35.16 97.3933 34.64 98.22C34.1333 99.0467 33.6467 99.9867 33.18 101.04C32.7267 102.08 32.3267 103.2 31.98 104.4C31.6467 105.6 31.44 106.8 31.36 108H28.34ZM47.5472 101.04C47.5472 103.373 47.1005 105.167 46.2072 106.42C45.3272 107.66 44.1072 108.28 42.5472 108.28C40.9872 108.28 39.7605 107.66 38.8672 106.42C37.9872 105.167 37.5472 103.373 37.5472 101.04C37.5472 99.88 37.6605 98.8533 37.8872 97.96C38.1272 97.0667 38.4672 96.3133 38.9072 95.7C39.3472 95.0867 39.8739 94.62 40.4872 94.3C41.1005 93.98 41.7872 93.82 42.5472 93.82C44.1072 93.82 45.3272 94.4467 46.2072 95.7C47.1005 96.94 47.5472 98.72 47.5472 101.04ZM44.5072 101.04C44.5072 100.347 44.4739 99.72 44.4072 99.16C44.3405 98.5867 44.2339 98.0933 44.0872 97.68C43.9405 97.2667 43.7405 96.9467 43.4872 96.72C43.2339 96.4933 42.9205 96.38 42.5472 96.38C42.1739 96.38 41.8605 96.4933 41.6072 96.72C41.3672 96.9467 41.1672 97.2667 41.0072 97.68C40.8605 98.0933 40.7539 98.5867 40.6872 99.16C40.6205 99.72 40.5872 100.347 40.5872 101.04C40.5872 101.733 40.6205 102.367 40.6872 102.94C40.7539 103.513 40.8605 104.007 41.0072 104.42C41.1672 104.833 41.3672 105.153 41.6072 105.38C41.8605 105.607 42.1739 105.72 42.5472 105.72C42.9205 105.72 43.2339 105.607 43.4872 105.38C43.7405 105.153 43.9405 104.833 44.0872 104.42C44.2339 104.007 44.3405 103.513 44.4072 102.94C44.4739 102.367 44.5072 101.733 44.5072 101.04ZM56.0144 97.7C56.0144 98.9533 55.6944 99.9133 55.0544 100.58C54.4144 101.247 53.5544 101.58 52.4744 101.58C51.3944 101.58 50.5344 101.247 49.8944 100.58C49.2544 99.9133 48.9344 98.9533 48.9344 97.7C48.9344 96.4467 49.2544 95.4867 49.8944 94.82C50.5344 94.1533 51.3944 93.82 52.4744 93.82C53.5544 93.82 54.4144 94.1533 55.0544 94.82C55.6944 95.4867 56.0144 96.4467 56.0144 97.7ZM53.7544 97.7C53.7544 97.02 53.6344 96.5267 53.3944 96.22C53.1544 95.9133 52.8477 95.76 52.4744 95.76C52.0877 95.76 51.7744 95.9133 51.5344 96.22C51.3077 96.5267 51.1944 97.02 51.1944 97.7C51.1944 98.38 51.3077 98.88 51.5344 99.2C51.7744 99.5067 52.0877 99.66 52.4744 99.66C52.8477 99.66 53.1544 99.5067 53.3944 99.2C53.6344 98.88 53.7544 98.38 53.7544 97.7ZM59.9144 94.14H62.6944L54.8744 108H52.0944L59.9144 94.14ZM65.8944 104.44C65.8944 105.693 65.5744 106.653 64.9344 107.32C64.2944 107.987 63.4344 108.32 62.3544 108.32C61.2744 108.32 60.4144 107.987 59.7744 107.32C59.1344 106.653 58.8144 105.693 58.8144 104.44C58.8144 103.187 59.1344 102.227 59.7744 101.56C60.4144 100.893 61.2744 100.56 62.3544 100.56C63.4344 100.56 64.2944 100.893 64.9344 101.56C65.5744 102.227 65.8944 103.187 65.8944 104.44ZM63.6344 104.44C63.6344 103.76 63.5144 103.267 63.2744 102.96C63.0344 102.653 62.7277 102.5 62.3544 102.5C61.9677 102.5 61.6544 102.653 61.4144 102.96C61.1877 103.267 61.0744 103.76 61.0744 104.44C61.0744 105.12 61.1877 105.62 61.4144 105.94C61.6544 106.247 61.9677 106.4 62.3544 106.4C62.7277 106.4 63.0344 106.247 63.2744 105.94C63.5144 105.62 63.6344 105.12 63.6344 104.44Z" fill="#E2DFED"/>
<path d="M117.34 93.412C117.572 93.316 117.812 93.208 118.06 93.088C118.316 92.96 118.564 92.824 118.804 92.68C119.044 92.528 119.272 92.372 119.488 92.212C119.712 92.044 119.912 91.868 120.088 91.684H121.336V100H119.548V94.012C119.308 94.172 119.04 94.32 118.744 94.456C118.448 94.584 118.16 94.696 117.88 94.792L117.34 93.412ZM129.728 95.824C129.728 97.224 129.46 98.3 128.924 99.052C128.396 99.796 127.664 100.168 126.728 100.168C125.792 100.168 125.056 99.796 124.52 99.052C123.992 98.3 123.728 97.224 123.728 95.824C123.728 95.128 123.796 94.512 123.932 93.976C124.076 93.44 124.28 92.988 124.544 92.62C124.808 92.252 125.124 91.972 125.492 91.78C125.86 91.588 126.272 91.492 126.728 91.492C127.664 91.492 128.396 91.868 128.924 92.62C129.46 93.364 129.728 94.432 129.728 95.824ZM127.904 95.824C127.904 95.408 127.884 95.032 127.844 94.696C127.804 94.352 127.74 94.056 127.652 93.808C127.564 93.56 127.444 93.368 127.292 93.232C127.14 93.096 126.952 93.028 126.728 93.028C126.504 93.028 126.316 93.096 126.164 93.232C126.02 93.368 125.9 93.56 125.804 93.808C125.716 94.056 125.652 94.352 125.612 94.696C125.572 95.032 125.552 95.408 125.552 95.824C125.552 96.24 125.572 96.62 125.612 96.964C125.652 97.308 125.716 97.604 125.804 97.852C125.9 98.1 126.02 98.292 126.164 98.428C126.316 98.564 126.504 98.632 126.728 98.632C126.952 98.632 127.14 98.564 127.292 98.428C127.444 98.292 127.564 98.1 127.652 97.852C127.74 97.604 127.804 97.308 127.844 96.964C127.884 96.62 127.904 96.24 127.904 95.824ZM134.809 93.82C134.809 94.572 134.617 95.148 134.233 95.548C133.849 95.948 133.333 96.148 132.685 96.148C132.037 96.148 131.521 95.948 131.137 95.548C130.753 95.148 130.561 94.572 130.561 93.82C130.561 93.068 130.753 92.492 131.137 92.092C131.521 91.692 132.037 91.492 132.685 91.492C133.333 91.492 133.849 91.692 134.233 92.092C134.617 92.492 134.809 93.068 134.809 93.82ZM133.453 93.82C133.453 93.412 133.381 93.116 133.237 92.932C133.093 92.748 132.909 92.656 132.685 92.656C132.453 92.656 132.265 92.748 132.121 92.932C131.985 93.116 131.917 93.412 131.917 93.82C131.917 94.228 131.985 94.528 132.121 94.72C132.265 94.904 132.453 94.996 132.685 94.996C132.909 94.996 133.093 94.904 133.237 94.72C133.381 94.528 133.453 94.228 133.453 93.82ZM137.149 91.684H138.817L134.125 100H132.457L137.149 91.684ZM140.737 97.864C140.737 98.616 140.545 99.192 140.161 99.592C139.777 99.992 139.261 100.192 138.613 100.192C137.965 100.192 137.449 99.992 137.065 99.592C136.681 99.192 136.489 98.616 136.489 97.864C136.489 97.112 136.681 96.536 137.065 96.136C137.449 95.736 137.965 95.536 138.613 95.536C139.261 95.536 139.777 95.736 140.161 96.136C140.545 96.536 140.737 97.112 140.737 97.864ZM139.381 97.864C139.381 97.456 139.309 97.16 139.165 96.976C139.021 96.792 138.837 96.7 138.613 96.7C138.381 96.7 138.193 96.792 138.049 96.976C137.913 97.16 137.845 97.456 137.845 97.864C137.845 98.272 137.913 98.572 138.049 98.764C138.193 98.948 138.381 99.04 138.613 99.04C138.837 99.04 139.021 98.948 139.165 98.764C139.309 98.572 139.381 98.272 139.381 97.864Z" fill="#474168"/>
<defs>
<filter id="filter0_i_5055_6228" x="-0.5" y="22" width="132" height="136" filterUnits="userSpaceOnUse" color-interpolation-filters="sRGB">
<feFlood flood-opacity="0" result="BackgroundImageFix"/>
<feBlend mode="normal" in="SourceGraphic" in2="BackgroundImageFix" result="shape"/>
<feColorMatrix in="SourceAlpha" type="matrix" values="0 0 0 0 0 0 0 0 0 0 0 0 0 0 0 0 0 0 127 0" result="hardAlpha"/>
<feOffset dx="-1" dy="7"/>
<feGaussianBlur stdDeviation="2.5"/>
<feComposite in2="hardAlpha" operator="arithmetic" k2="-1" k3="1"/>
<feColorMatrix type="matrix" values="0 0 0 0 0.491943 0 0 0 0 0.186992 0 0 0 0 0.137807 0 0 0 0.25 0"/>
<feBlend mode="normal" in2="shape" result="effect1_innerShadow_5055_6228"/>
</filter>
<filter id="filter1_i_5055_6228" x="47.5" y="0" width="105" height="102" filterUnits="userSpaceOnUse" color-interpolation-filters="sRGB">
<feFlood flood-opacity="0" result="BackgroundImageFix"/>
<feBlend mode="normal" in="SourceGraphic" in2="BackgroundImageFix" result="shape"/>
<feColorMatrix in="SourceAlpha" type="matrix" values="0 0 0 0 0 0 0 0 0 0 0 0 0 0 0 0 0 0 127 0" result="hardAlpha"/>
<feOffset dx="-7" dy="2"/>
<feGaussianBlur stdDeviation="2.5"/>
<feComposite in2="hardAlpha" operator="arithmetic" k2="-1" k3="1"/>
<feColorMatrix type="matrix" values="0 0 0 0 0.164706 0 0 0 0 0.14902 0 0 0 0 0.235294 0 0 0 0.25 0"/>
<feBlend mode="normal" in2="shape" result="effect1_innerShadow_5055_6228"/>
</filter>
<filter id="filter2_i_5055_6228" x="94.5" y="61" width="69" height="70" filterUnits="userSpaceOnUse" color-interpolation-filters="sRGB">
<feFlood flood-opacity="0" result="BackgroundImageFix"/>
<feBlend mode="normal" in="SourceGraphic" in2="BackgroundImageFix" result="shape"/>
<feColorMatrix in="SourceAlpha" type="matrix" values="0 0 0 0 0 0 0 0 0 0 0 0 0 0 0 0 0 0 127 0" result="hardAlpha"/>
<feOffset dy="1"/>
<feGaussianBlur stdDeviation="5"/>
<feComposite in2="hardAlpha" operator="arithmetic" k2="-1" k3="1"/>
<feColorMatrix type="matrix" values="0 0 0 0 0.56141 0 0 0 0 0.559662 0 0 0 0 0.536939 0 0 0 0.25 0"/>
<feBlend mode="normal" in2="shape" result="effect1_innerShadow_5055_6228"/>
</filter>
</defs>
</svg>
